<?xml version="1.0" encoding="UTF-8" standalone="no"?>
<svg
   viewBox="0 0 26 26"
   version="1.1"
   id="svg18"
   sodipodi:docname="info.svg"
   width="26"
   height="26"
   inkscape:version="1.1.1 (3bf5ae0d25, 2021-09-20)"
   xmlns:inkscape="http://www.inkscape.org/namespaces/inkscape"
   xmlns:sodipodi="http://sodipodi.sourceforge.net/DTD/sodipodi-0.dtd"
   xmlns="http://www.w3.org/2000/svg"
   xmlns:svg="http://www.w3.org/2000/svg">
  <sodipodi:namedview
     id="namedview20"
     pagecolor="#505050"
     bordercolor="#eeeeee"
     borderopacity="1"
     inkscape:pageshadow="0"
     inkscape:pageopacity="0"
     inkscape:pagecheckerboard="0"
     showgrid="false"
     fit-margin-top="0"
     fit-margin-left="0"
     fit-margin-right="0"
     fit-margin-bottom="0"
     inkscape:zoom="22.46875"
     inkscape:cx="11.972184"
     inkscape:cy="13.018081"
     inkscape:window-width="1920"
     inkscape:window-height="1017"
     inkscape:window-x="-8"
     inkscape:window-y="-8"
     inkscape:window-maximized="1"
     inkscape:current-layer="svg18" />
  <defs
     id="defs4">
    <style
       id="style2">.cls-1{fill:none;}</style>
  </defs>
  <title
     id="title6" />
  <g
     data-name="Layer 2"
     id="Layer_2"
     transform="translate(-3,-3)">
    <path
       d="m 16,12 a 2,2 0 1 1 2,-2 2,2 0 0 1 -2,2 z m 0,-2 z"
       id="path8" />
    <path
       d="M 16,29 A 13,13 0 1 1 29,16 13,13 0 0 1 16,29 Z M 16,5 A 11,11 0 1 0 27,16 11,11 0 0 0 16,5 Z"
       id="path10" />
    <path
       d="m 16,24 a 2,2 0 0 1 -2,-2 v -6 a 2,2 0 0 1 4,0 v 6 a 2,2 0 0 1 -2,2 z m 0,-8 z"
       id="path12" />
  </g>
  <g
     id="frame"
     transform="translate(-3,-3)">
    <rect
       class="cls-1"
       height="32"
       width="32"
       id="rect15"
       x="0"
       y="0" />
  </g>
</svg>
