<?xml version="1.0" encoding="UTF-8" standalone="no"?>
<svg
   fill="none"
   height="18"
   viewBox="0 0 18 18"
   width="18"
   version="1.1"
   id="svg8"
   sodipodi:docname="mirror2.svg"
   inkscape:version="1.1.1 (3bf5ae0d25, 2021-09-20)"
   xmlns:inkscape="http://www.inkscape.org/namespaces/inkscape"
   xmlns:sodipodi="http://sodipodi.sourceforge.net/DTD/sodipodi-0.dtd"
   xmlns="http://www.w3.org/2000/svg"
   xmlns:svg="http://www.w3.org/2000/svg">
  <defs
     id="defs12" />
  <sodipodi:namedview
     id="namedview10"
     pagecolor="#505050"
     bordercolor="#eeeeee"
     borderopacity="1"
     inkscape:pageshadow="0"
     inkscape:pageopacity="0"
     inkscape:pagecheckerboard="0"
     showgrid="false"
     fit-margin-top="0"
     fit-margin-left="0"
     fit-margin-right="0"
     fit-margin-bottom="0"
     inkscape:zoom="29.958333"
     inkscape:cx="8.2114047"
     inkscape:cy="8.9958275"
     inkscape:window-width="1920"
     inkscape:window-height="1017"
     inkscape:window-x="1912"
     inkscape:window-y="-1"
     inkscape:window-maximized="1"
     inkscape:current-layer="svg8" />
  <path
     d="m 15,4 c 0.5523,0 1,0.44772 1,1 v 8 c 0,0.5523 -0.4477,1 -1,1 h -3 v 2 h 3 c 1.6569,0 3,-1.3431 3,-3 V 5 C 18,3.34315 16.6569,2 15,2 h -3 v 2 z"
     fill="currentColor"
     fill-opacity="0.5"
     id="path2" />
  <path
     d="M 10,0 H 8 v 18 h 2 z"
     fill="currentColor"
     id="path4" />
  <path
     d="M 2,5 C 2,4.44772 2.44772,4 3,4 H 6 V 2 H 3 C 1.34315,2 0,3.34315 0,5 v 8 c 0,1.6569 1.34315,3 3,3 H 6 V 14 H 3 C 2.44772,14 2,13.5523 2,13 Z"
     fill="currentColor"
     id="path6" />
</svg>
