<?xml version="1.0" encoding="UTF-8" standalone="no"?>
<svg
   height="44"
   viewBox="0 0 44 44"
   width="44"
   version="1.1"
   id="svg6"
   sodipodi:docname="mirror3.svg"
   inkscape:version="1.1.1 (3bf5ae0d25, 2021-09-20)"
   xmlns:inkscape="http://www.inkscape.org/namespaces/inkscape"
   xmlns:sodipodi="http://sodipodi.sourceforge.net/DTD/sodipodi-0.dtd"
   xmlns="http://www.w3.org/2000/svg"
   xmlns:svg="http://www.w3.org/2000/svg">
  <defs
     id="defs10" />
  <sodipodi:namedview
     id="namedview8"
     pagecolor="#505050"
     bordercolor="#eeeeee"
     borderopacity="1"
     inkscape:pageshadow="0"
     inkscape:pageopacity="0"
     inkscape:pagecheckerboard="0"
     showgrid="false"
     fit-margin-top="0"
     fit-margin-left="0"
     fit-margin-right="0"
     fit-margin-bottom="0"
     inkscape:zoom="14.979167"
     inkscape:cx="16.422809"
     inkscape:cy="21.997218"
     inkscape:window-width="1920"
     inkscape:window-height="1017"
     inkscape:window-x="1912"
     inkscape:window-y="-1"
     inkscape:window-maximized="1"
     inkscape:current-layer="svg6" />
  <path
     d="M -6,-2 H 42 V 46 H -6 Z"
     fill="none"
     id="path2" />
  <path
     d="m 28,40 h 4 v -4 h -4 z m 8,-24 h 4 V 12 H 36 Z M 4,8 v 28 c 0,2.21 1.79,4 4,4 h 8 V 36 H 8 V 8 h 8 V 4 H 8 C 5.79,4 4,5.79 4,8 Z M 36,4 v 4 h 4 C 40,5.79 38.21,4 36,4 Z M 20,44 h 4 V 0 H 20 Z M 36,32 h 4 V 28 H 36 Z M 28,8 h 4 V 4 h -4 z m 8,16 h 4 v -4 h -4 z m 0,16 c 2.21,0 4,-1.79 4,-4 h -4 z"
     id="path4" />
</svg>
