<?xml version="1.0" encoding="UTF-8" standalone="no"?>
<svg
   fill="none"
   height="16.5"
   viewBox="0 0 16.5 16.5"
   width="16.5"
   version="1.1"
   id="svg6"
   sodipodi:docname="mirror1.svg"
   inkscape:version="1.1.1 (3bf5ae0d25, 2021-09-20)"
   xmlns:inkscape="http://www.inkscape.org/namespaces/inkscape"
   xmlns:sodipodi="http://sodipodi.sourceforge.net/DTD/sodipodi-0.dtd"
   xmlns="http://www.w3.org/2000/svg"
   xmlns:svg="http://www.w3.org/2000/svg">
  <defs
     id="defs10" />
  <sodipodi:namedview
     id="namedview8"
     pagecolor="#505050"
     bordercolor="#eeeeee"
     borderopacity="1"
     inkscape:pageshadow="0"
     inkscape:pageopacity="0"
     inkscape:pagecheckerboard="0"
     showgrid="false"
     fit-margin-top="0"
     fit-margin-left="0"
     fit-margin-right="0"
     fit-margin-bottom="0"
     inkscape:zoom="29.958333"
     inkscape:cx="7.4770515"
     inkscape:cy="7.4937413"
     inkscape:window-width="1920"
     inkscape:window-height="1017"
     inkscape:window-x="1912"
     inkscape:window-y="-1"
     inkscape:window-maximized="1"
     inkscape:current-layer="svg6" />
  <path
     d="m 0.74999915,15.000104 c -0.2645,0 -0.50944,-0.1394 -0.64463,-0.3667 -0.13519,-0.2273 -0.14064,-0.5091 -0.01434,-0.7415 L 6.3409991,2.3919443 c 0.1638,-0.30142 0.5113,-0.45327 0.8438,-0.36876 0.3324,0.08452 0.5652,0.38384 0.5652,0.72689 V 14.250104 c 0,0.4142 -0.3358,0.75 -0.75,0.75 z"
     fill="#212121"
     id="path2" />
  <path
     d="m 16.394599,14.633404 c -0.1352,0.2273 -0.3801,0.3667 -0.6446,0.3667 H 9.4999991 c -0.4142,0 -0.75,-0.3358 -0.75,-0.75 V 2.7500743 c 0,-0.34305 0.2328,-0.64237 0.5652,-0.72689 0.3325,-0.08451 0.68,0.06734 0.8437999,0.36876 l 6.25,11.4999597 c 0.1263,0.2324 0.1208,0.5142 -0.0144,0.7415 z m -6.1446,-8.9326897 v 7.7993897 h 4.2388 z"
     fill="#212121"
     id="path4" />
</svg>
